# xmcd
#
# Track frame offsets: 
#        150
#        10981
#        23295
#        42118
#        53401
#        64732
#        71565
#        83382
#        94211
#        106116
#        118583
#        127030
#        133847
#        145299
#        158440
#        170982
#        223785
#        232766
#        246626
#        256884
#
# Disc length: 3603 seconds
#
# Revision: 0
# Processed by: cddbd v1.5.2PL0 Copyright (c) Steve Scherf et al.
# Submitted via: ExactAudioCopy v0.99pb1
#
DISCID=0b0e1114
DTITLE=Dink Johnson - Mr. Johnson Signing Off
DYEAR=2004
DGENRE=Blues
TTITLE0=Kansas City Stomp
TTITLE1=Cannon Ball Rag
TTITLE2=When The Sun Goes Down
TTITLE3=Twelfth Street Rag
TTITLE4=Pidgeon Walk
TTITLE5=Dink's Blues
TTITLE6=Las Vegas Stomp
TTITLE7=Original Jelly Roll Blues
TTITLE8=Exactly Like You
TTITLE9=Stomp De Lowdown
TTITLE10=Four Or Five Times
TTITLE11=Lazy Blues
TTITLE12=Lady Be Good
TTITLE13=Frog-I-More Bag
TTITLE14=Clementine
TTITLE15=Dink's Last Blues
TTITLE16=That Indian Rag
TTITLE17=Grace And Beauty
TTITLE18=At The Jazz Band Ball
TTITLE19=Wolverine Blues
EXTD=
EXTT0=
EXTT1=
EXTT2=
EXTT3=
EXTT4=
EXTT5=
EXTT6=
EXTT7=
EXTT8=
EXTT9=
EXTT10=
EXTT11=
EXTT12=
EXTT13=
EXTT14=
EXTT15=
EXTT16=
EXTT17=
EXTT18=
EXTT19=
PLAYORDER=
